<svg width="78" height="297" viewBox="0 0 78 297" fill="none" xmlns="http://www.w3.org/2000/svg">
<path d="M49.0875 261.447C48.1114 265.673 44.2122 268.923 39.9859 268.923C35.7622 268.923 29.2617 266.322 29.2617 259.822C29.2617 259.078 29.3118 258.392 29.4068 257.761C30.1191 252.875 33.3087 251.147 34.4615 249.422C34.9602 248.676 35.195 247.238 35.2952 245.744C35.3743 244.613 35.3743 243.447 35.3506 242.531C35.3269 241.502 35.2741 240.787 35.2741 240.787L43.8877 238.695C43.8877 238.695 43.5025 240.067 43.2704 241.927C42.9512 244.497 42.9274 247.997 44.6238 250.071C47.5495 253.646 50.061 257.221 49.0875 261.447Z" fill="#FFBA30"/>
<g opacity="0.41">
<path d="M49.0875 261.445C48.1114 265.672 44.2122 268.922 39.9859 268.922C35.7622 268.922 29.2617 266.321 29.2617 259.82C29.2617 259.076 29.3118 258.39 29.4068 257.76C29.8157 258.747 32.4196 264.318 38.2368 263.089C44.6132 261.743 45.7819 256.982 44.7926 254.288C43.8059 251.594 40.3921 250.515 39.7643 248.091C39.2604 246.155 36.8095 245.706 35.2952 245.743C35.3743 244.611 35.3743 243.445 35.3506 242.53L42.6372 241.535L43.2704 241.926C42.9512 244.495 42.9274 247.996 44.6238 250.07C47.5495 253.644 50.061 257.219 49.0875 261.445Z" fill="#D49A28"/>
</g>
<path d="M35.0312 259.062C35.0207 259.113 35.0101 259.165 34.9996 259.218C34.9969 259.202 34.9996 259.184 35.0048 259.163C35.0128 259.128 35.0233 259.097 35.0312 259.062Z" fill="#B3975F"/>
<path d="M44.223 258.56C44.1853 258.294 44.0399 257.991 43.9753 257.766C43.8534 257.34 43.7323 256.915 43.6115 256.489C42.6839 253.218 41.7919 249.936 40.9522 246.641C40.7135 245.703 40.4787 244.765 40.2489 243.825C40.1259 243.323 40.1639 242.146 39.5674 241.924C38.7654 241.626 38.714 243.389 38.6077 243.82C38.4264 244.557 38.2431 245.294 38.0592 246.03C37.6875 247.518 37.3134 249.006 36.948 250.495C36.5861 251.972 36.2325 253.45 35.8988 254.933C35.7292 255.687 35.5646 256.442 35.4065 257.199C35.2622 257.889 34.9894 258.673 34.9699 259.377C34.9644 259.575 34.9865 259.855 35.2817 259.775C35.5376 259.706 35.6041 259.062 35.6674 258.849C35.8408 258.265 36.0276 256.91 36.976 257.276C36.6407 257.955 36.1133 259.086 36.6921 259.792C37.0119 260.183 37.6025 260.22 38.0141 259.959C38.4871 259.659 38.5977 259.086 38.5942 258.564C38.5903 257.949 38.3953 257.408 37.9822 256.96C38.4262 256.527 39.6764 256.084 40.1708 256.624C39.6199 257.306 39.1316 258.345 39.5366 259.244C40.0389 260.358 41.1477 259.263 41.3297 258.532C41.4933 257.875 41.2873 257.251 41.0182 256.655C41.3028 256.469 41.7015 256.416 42.0352 256.477C42.4507 256.553 42.5541 256.707 42.6633 257.099C42.8058 257.609 42.9016 258.826 43.3553 259.144C43.6814 259.372 44.1655 259.157 44.2257 258.773C44.2357 258.706 44.2336 258.635 44.223 258.56ZM38.0151 259.022C37.6247 260.243 37.0179 259.233 37.0786 258.539C37.1103 258.185 37.2474 257.837 37.4532 257.528C37.8885 257.903 38.1602 258.565 38.0151 259.022ZM40.0281 258.964C39.8756 258.644 39.898 258.308 39.9964 257.953C40.094 257.576 40.2629 257.265 40.5056 257.019C40.5267 257.056 40.5425 257.093 40.5583 257.133C40.9593 257.731 40.886 259.071 40.0281 258.964ZM40.6586 256.254C40.3526 256.009 39.9384 255.903 39.3764 255.93C38.6272 255.967 37.9703 256.236 37.4638 256.705C37.3794 256.687 37.2923 256.676 37.1973 256.671C36.8042 256.652 36.4797 256.761 36.2133 256.948C37.3899 252.751 38.3713 248.482 39.4134 244.25C39.2736 243.649 39.1364 243.05 38.9992 242.449H39.8592C39.7089 243.047 39.5611 243.649 39.4134 244.25C40.3262 248.168 41.2944 252.067 42.3497 255.948C41.7851 255.785 41.1704 255.935 40.6586 256.254Z" fill="#B3975F"/>
<path d="M31.1362 241.639V219.318C31.1362 217.993 32.2097 216.92 33.5341 216.92H44.9898C46.3141 216.92 47.3876 217.993 47.3876 219.318V241.533C47.3876 242.926 46.2068 244.024 44.8175 243.925C42.665 243.771 39.0697 243.68 33.6947 244.031C32.3107 244.122 31.1362 243.026 31.1362 241.639Z" fill="#4F4943"/>
<path d="M42.5127 203.592C42.4863 203.906 42.4415 204.188 42.3808 204.441C41.5761 207.829 38.0041 205.868 36.0914 204.526C35.3606 204.014 34.8726 203.592 34.8726 203.592C34.8726 203.592 34.9174 202.645 35.0388 201.075C35.3237 197.337 36.036 190.068 37.5767 183.705C37.8431 182.608 38.1333 181.537 38.4499 180.516H40.3995C40.3995 180.516 43.1749 195.912 42.5127 203.592Z" fill="#D4A611"/>
<g opacity="0.32">
<path d="M42.5127 203.592C42.4863 203.906 42.4415 204.188 42.3808 204.441L40.0328 205.164L36.0914 204.526C35.3606 204.014 34.8726 203.592 34.8726 203.592C34.8726 203.592 34.9174 202.645 35.0388 201.075C36.0756 200.666 37.975 199.55 39.4023 196.632C41.4258 192.498 39.9167 185.346 37.5767 183.705C37.8431 182.608 38.1333 181.537 38.4499 180.516H40.3995C40.3995 180.516 43.1749 195.912 42.5127 203.592Z" fill="#D4A611"/>
</g>
<path d="M40.416 0H38.4658V180.712H40.416V0Z" fill="#4F4943"/>
<path d="M58.9248 223.745H19.5977L21.1858 220.777L23.8082 215.872C24.8529 213.915 26.8922 212.693 29.1109 212.693H49.4116C51.6303 212.693 53.6696 213.915 54.7169 215.872L58.9248 223.745Z" fill="#4F4943"/>
<path d="M47.7128 214.968L42.0592 215.076L30.8101 215.295L31.7492 212.693L34.4349 205.256L35.0364 203.592H42.513L46.6733 212.693L47.7128 214.968Z" fill="#4F4943"/>
<g opacity="0.14">
<path d="M58.9248 223.745H19.5977L21.1858 220.777C22.6922 219.64 25.5678 217.901 29.9736 216.928C35.5111 215.706 39.7242 215.981 42.059 215.076C42.6394 214.854 43.1037 214.556 43.444 214.144C43.7342 213.794 43.8661 213.29 43.8503 212.693C43.7817 209.784 40.207 204.731 34.4637 205.254C34.4532 205.254 34.4426 205.256 34.4347 205.256L35.0362 203.592H42.5128L46.6731 212.693H49.4116C51.6303 212.693 53.6696 213.915 54.7169 215.872L58.9248 223.745Z" fill="#4F4943"/>
</g>
<path d="M46.2671 0.453125V12.3275C46.2671 14.0265 44.8899 15.4036 43.191 15.4036H35.6906C33.9943 15.4036 32.6172 14.0265 32.6172 12.3275V0.453125H46.2671Z" fill="#4F4943"/>
<g opacity="0.14">
<path d="M46.2671 0.453125V12.3275C46.2671 14.0265 44.8899 15.4036 43.191 15.4036H35.6906C33.9943 15.4036 32.6172 14.0265 32.6172 12.3275V11.2327C33.2029 11.4833 35.7487 12.3855 39.0438 10.8158C41.4682 9.66032 41.3337 4.2046 40.9274 0.453125H46.2671Z" fill="#4F4943"/>
</g>
<g opacity="0.49">
<path d="M39 296.521C60.5391 296.521 78 279.061 78 257.521C78 235.982 60.5391 218.521 39 218.521C17.4609 218.521 0 235.982 0 257.521C0 279.061 17.4609 296.521 39 296.521Z" fill="#EDD6C2"/>
</g>
<g opacity="0.44">
<path d="M64.8511 244.655C64.1755 248.789 66.0098 253.03 65.6056 259.901C65.27 265.608 62.4799 271.52 58.6865 275.767C54.9865 279.91 49.9534 283.074 44.5808 284.526C42.9198 284.975 35.0934 285.327 36.447 288.589C37.2332 290.483 42.4367 290.488 44.0497 290.559C47.5943 290.716 51.134 289.856 54.3866 288.473C62.4427 285.047 68.4999 277.913 71.2088 269.657C72.7323 265.014 73.2056 260.027 72.5115 255.186C72.1527 252.683 70.5564 242.086 66.2293 243.534C65.6396 243.731 64.9532 244.031 64.8511 244.655Z" fill="#F5E7DA"/>
</g>
<g opacity="0.44">
<path d="M37.9509 226.728C37.0031 225.585 34.7548 225.466 33.3685 225.396C31.5333 225.302 29.6439 225.566 27.8692 226.022C24.1531 226.976 20.8134 228.77 17.8407 231.172C11.9442 235.938 7.88009 242.737 7.16462 250.336C6.7995 254.213 7.29652 259.55 10.7715 261.993C11.2171 262.306 12.0062 262.003 12.0977 261.453C12.4235 259.491 12.1315 257.514 12.0608 255.545C11.988 253.526 12.093 251.435 12.5148 249.458C13.3385 245.599 15.1044 242.025 17.6176 238.988C20.1236 235.959 23.2089 233.465 26.5443 231.403C28.2852 230.326 30.1341 229.475 32.0984 228.894C33.0727 228.606 34.08 228.372 35.0856 228.223C35.995 228.089 37.031 228.168 37.8285 227.68C38.185 227.461 38.2008 227.029 37.9509 226.728Z" fill="#F5E7DA"/>
</g>
</svg>
